# xmcd
#
# Track frame offsets:
#	150
#	36179
#	78432
#	103085
#	139505
#	152701
#	182195
#	223922
#	267180
#	296978
#
# Disc length: 3973 seconds
#
# Revision: 1
# Processed by: cddbd v1.5.2PL0 Copyright (c) Steve Scherf et al.
# Submitted via: audiograbber 1.83.01
#
DISCID=960f830a
DTITLE=Grateful Dead - 78-05-10A Veterans Memorial Coliseum, New Haven CT
DYEAR=1900
DGENRE=
TTITLE0=Jack Straw
TTITLE1=They Love Each Other
TTITLE2=Cassidy
TTITLE3=Ramble On Rose
TTITLE4=Me and My Uncle
TTITLE5=Big River
TTITLE6=Peggy-O
TTITLE7=Let It Grow
TTITLE8=Deal
TTITLE9="Thank You"
EXTD=
EXTT0=
EXTT1=
EXTT2=
EXTT3=
EXTT4=
EXTT5=
EXTT6=
EXTT7=
EXTT8=
EXTT9=
PLAYORDER=
